<?xml version="1.0" standalone="no"?>
<!DOCTYPE svg PUBLIC "-//W3C//DTD SVG 20010904//EN"
 "http://www.w3.org/TR/2001/REC-SVG-20010904/DTD/svg10.dtd">
<svg version="1.0" xmlns="http://www.w3.org/2000/svg"
 width="500.000000pt" height="500.000000pt" viewBox="0 0 500.000000 500.000000"
 preserveAspectRatio="xMidYMid meet">

<g transform="translate(0.000000,500.000000) scale(0.100000,-0.100000)"
fill="#000000" stroke="none">
<path d="M1392 2433 l3 -948 118 -3 117 -3 0 421 0 420 390 0 390 0 0 -420 0
-421 118 3 117 3 3 418 2 417 395 0 396 0 -3 103 -3 102 -392 3 -393 2 0 320
0 320 460 0 460 0 0 105 0 105 -1090 0 -1090 0 2 -947z m1018 417 l0 -320
-390 0 -390 0 0 320 0 320 390 0 390 0 0 -320z"/>
</g>
</svg>
